<?xml version="1.0" encoding="UTF-8" standalone="no"?>
<svg
   xmlns:dc="http://purl.org/dc/elements/1.1/"
   xmlns:cc="http://creativecommons.org/ns#"
   xmlns:rdf="http://www.w3.org/1999/02/22-rdf-syntax-ns#"
   xmlns:svg="http://www.w3.org/2000/svg"
   xmlns="http://www.w3.org/2000/svg"
   id="svg11"
   height="10.93mm"
   width="10.94mm"
   version="1.0">
  <metadata
     id="metadata15">
    <rdf:RDF>
      <cc:Work
         rdf:about="">
        <dc:format>image/svg+xml</dc:format>
        <dc:type
           rdf:resource="http://purl.org/dc/dcmitype/StillImage" />
      </cc:Work>
    </rdf:RDF>
  </metadata>
  <defs
     id="defs3">
    <pattern
       y="0"
       x="0"
       height="6"
       width="6"
       patternUnits="userSpaceOnUse"
       id="EMFhbasepattern" />
  </defs>
  <path
     id="path5"
     d="  M 0,0   L 39.997923,0   L 39.997923,39.997923   L 0,39.997923   z  M 19.998961,4.9997403   C 28.278531,4.9997403 34.998182,11.719391 34.998182,19.998961   C 34.998182,28.318529 28.278531,34.998182 19.998961,34.998182   C 11.719391,34.998182 4.9997403,28.318529 4.9997403,19.998961   C 4.9997403,11.719391 11.719391,4.9997403 19.998961,4.9997403   z "
     style="fill:#f2f2f2;fill-rule:evenodd;fill-opacity:1;stroke:none;" />
  <path
     id="path7"
     d="  M 19.998961,4.9997403   C 28.278531,4.9997403 34.998182,11.719391 34.998182,19.998961   C 34.998182,28.318529 28.278531,34.998182 19.998961,34.998182   C 11.719391,34.998182 4.9997403,28.318529 4.9997403,19.998961   C 4.9997403,11.719391 11.719391,4.9997403 19.998961,4.9997403   z  M 19.998961,5.9596905   C 21.55888,5.9596905 22.798816,7.1996261 22.798816,8.759545   C 22.798816,10.319464 21.55888,11.599398 19.998961,11.599398   C 18.439042,11.599398 17.159109,10.319464 17.159109,8.759545   C 17.159109,7.1996261 18.439042,5.9596905 19.998961,5.9596905   z  M 14.359254,14.399252   L 14.359254,16.279154   L 17.159109,16.279154   L 17.159109,29.398473   L 14.359254,29.398473   L 14.359254,31.278375   L 25.59867,31.278375   L 25.59867,29.398473   L 22.798816,29.398473   L 22.798816,14.399252   z "
     style="fill:#919191;fill-rule:evenodd;fill-opacity:1;stroke:none;" />
  <path
     id="path9"
     d="  M 19.998961,5.9596905   C 21.55888,5.9596905 22.798816,7.1996261 22.798816,8.759545   C 22.798816,10.319464 21.55888,11.599398 19.998961,11.599398   C 18.439042,11.599398 17.159109,10.319464 17.159109,8.759545   C 17.159109,7.1996261 18.439042,5.9596905 19.998961,5.9596905   z  M 14.359254,14.399252   L 22.798816,14.399252   L 22.798816,29.398473   L 25.59867,29.398473   L 25.59867,31.278375   L 14.359254,31.278375   L 14.359254,29.398473   L 17.159109,29.398473   L 17.159109,16.279154   L 14.359254,16.279154   z "
     style="fill:#f7f7f7;fill-rule:evenodd;fill-opacity:1;stroke:none;" />
</svg>
