<?xml version="1.0" encoding="UTF-8" standalone="no"?>
<svg
   xmlns:dc="http://purl.org/dc/elements/1.1/"
   xmlns:cc="http://creativecommons.org/ns#"
   xmlns:rdf="http://www.w3.org/1999/02/22-rdf-syntax-ns#"
   xmlns:svg="http://www.w3.org/2000/svg"
   xmlns="http://www.w3.org/2000/svg"
   id="svg19"
   height="11.27mm"
   width="11.27mm"
   version="1.0">
  <metadata
     id="metadata23">
    <rdf:RDF>
      <cc:Work
         rdf:about="">
        <dc:format>image/svg+xml</dc:format>
        <dc:type
           rdf:resource="http://purl.org/dc/dcmitype/StillImage" />
      </cc:Work>
    </rdf:RDF>
  </metadata>
  <defs
     id="defs3">
    <pattern
       y="0"
       x="0"
       height="6"
       width="6"
       patternUnits="userSpaceOnUse"
       id="EMFhbasepattern" />
  </defs>
  <path
     id="path5"
     d="  M 40.057919,46.677576   L 13.399304,46.677576   C 9.7194952,46.677576 6.719651,43.69773 6.719651,40.017921   L 6.719651,6.6796531   L 46.717574,6.6796531   L 46.717574,40.017921   C 46.717574,43.69773 43.737728,46.677576 40.057919,46.677576   z "
     style="fill:none;stroke:#0d0d0d;stroke-width:1.3399304px;stroke-linecap:butt;stroke-linejoin:miter;stroke-miterlimit:8;stroke-dasharray:none;stroke-opacity:1;" />
  <path
     id="path7"
     d="  M 26.718612,6.6796531   L 26.718612,46.677576  "
     style="fill:none;stroke:#0d0d0d;stroke-width:0.66996521px;stroke-linecap:butt;stroke-linejoin:miter;stroke-miterlimit:8;stroke-dasharray:none;stroke-opacity:1;" />
  <path
     id="path9"
     d="  M 16.719132,6.6796531   L 16.719132,46.677576  "
     style="fill:none;stroke:#0d0d0d;stroke-width:0.66996521px;stroke-linecap:butt;stroke-linejoin:miter;stroke-miterlimit:8;stroke-dasharray:none;stroke-opacity:1;" />
  <path
     id="path11"
     d="  M 36.718093,6.6796531   L 36.718093,46.677576  "
     style="fill:none;stroke:#0d0d0d;stroke-width:0.66996521px;stroke-linecap:butt;stroke-linejoin:miter;stroke-miterlimit:8;stroke-dasharray:none;stroke-opacity:1;" />
  <path
     id="path13"
     d="  M 30.388422,37.678043   L 25.058698,37.678043   C 24.318737,37.678043 23.718768,37.088074 23.718768,36.348112   L 23.718768,7.6796011   L 31.718353,7.6796011   L 31.718353,36.348112   C 31.718353,37.088074 31.128383,37.678043 30.388422,37.678043   z "
     style="fill:#0d0d0d;fill-rule:evenodd;fill-opacity:1;stroke:none;" />
  <path
     id="path15"
     d="  M 41.38785,37.678043   L 36.058127,37.678043   C 35.318166,37.678043 34.718197,37.088074 34.718197,36.348112   L 34.718197,7.6796011   L 42.717781,7.6796011   L 42.717781,36.348112   C 42.717781,37.088074 42.127812,37.678043 41.38785,37.678043   z "
     style="fill:#0d0d0d;fill-rule:evenodd;fill-opacity:1;stroke:none;" />
  <path
     id="path17"
     d="  M 19.388993,37.678043   L 14.05927,37.678043   C 13.319308,37.678043 12.719339,37.088074 12.719339,36.348112   L 12.719339,7.6796011   L 20.718924,7.6796011   L 20.718924,36.348112   C 20.718924,37.088074 20.128955,37.678043 19.388993,37.678043   z "
     style="fill:#0d0d0d;fill-rule:evenodd;fill-opacity:1;stroke:none;" />
</svg>
