<?xml version="1.0" encoding="UTF-8" standalone="no"?>
<svg
   xmlns:dc="http://purl.org/dc/elements/1.1/"
   xmlns:cc="http://creativecommons.org/ns#"
   xmlns:rdf="http://www.w3.org/1999/02/22-rdf-syntax-ns#"
   xmlns:svg="http://www.w3.org/2000/svg"
   xmlns="http://www.w3.org/2000/svg"
   id="svg11"
   height="11.27mm"
   width="11.23mm"
   version="1.0">
  <metadata
     id="metadata15">
    <rdf:RDF>
      <cc:Work
         rdf:about="">
        <dc:format>image/svg+xml</dc:format>
        <dc:type
           rdf:resource="http://purl.org/dc/dcmitype/StillImage" />
      </cc:Work>
    </rdf:RDF>
  </metadata>
  <defs
     id="defs3">
    <pattern
       y="0"
       x="0"
       height="6"
       width="6"
       patternUnits="userSpaceOnUse"
       id="EMFhbasepattern" />
  </defs>
  <path
     id="path5"
     d="  M 18.159057,20.698925   C 18.159057,19.558984 19.099008,18.619033 20.238949,18.619033   C 21.398889,18.619033 22.318841,19.558984 22.318841,20.698925   C 22.318841,21.858865 21.398889,22.798816 20.238949,22.798816   C 19.099008,22.798816 18.159057,21.858865 18.159057,20.698925   z  M 30.978391,20.698925   C 30.978391,19.558984 31.898343,18.619033 33.058283,18.619033   C 34.198224,18.619033 35.138175,19.558984 35.138175,20.698925   C 35.138175,21.858865 34.198224,22.798816 33.058283,22.798816   C 31.898343,22.798816 30.978391,21.858865 30.978391,20.698925   z "
     style="fill:none;stroke:#0d0d0d;stroke-width:1.3399304px;stroke-linecap:butt;stroke-linejoin:miter;stroke-miterlimit:8;stroke-dasharray:none;stroke-opacity:1;" />
  <path
     id="path7"
     d="  M 15.799179,35.438159   C 23.038803,40.397902 30.278427,40.397902 37.478053,35.438159  "
     style="fill:none;stroke:#0d0d0d;stroke-width:1.3199314px;stroke-linecap:butt;stroke-linejoin:miter;stroke-miterlimit:8;stroke-dasharray:none;stroke-opacity:1;" />
  <path
     id="path9"
     d="  M 6.6396551,26.678614   C 6.6396551,15.639188 15.59919,6.6796531 26.638616,6.6796531   C 37.718041,6.6796531 46.637578,15.639188 46.637578,26.678614   C 46.637578,37.758039 37.718041,46.677576 26.638616,46.677576   C 15.59919,46.677576 6.6396551,37.758039 6.6396551,26.678614  "
     style="fill:none;stroke:#0d0d0d;stroke-width:1.3199314px;stroke-linecap:butt;stroke-linejoin:miter;stroke-miterlimit:8;stroke-dasharray:none;stroke-opacity:1;" />
</svg>
